<?xml version="1.0" encoding="UTF-8"?>
<svg width="200" height="200" xmlns="http://www.w3.org/2000/svg">
  <defs>
    <linearGradient id="metalGrad" x1="0%" y1="0%" x2="100%" y2="0%">
      <stop offset="0%" style="stop-color:#555555;stop-opacity:1" />
      <stop offset="50%" style="stop-color:#eeeeee;stop-opacity:1" />
      <stop offset="100%" style="stop-color:#555555;stop-opacity:1" />
    </linearGradient>
    <linearGradient id="goldGrad" x1="0%" y1="0%" x2="100%" y2="0%">
      <stop offset="0%" style="stop-color:#e6c200;stop-opacity:1" />
      <stop offset="50%" style="stop-color:#ffd700;stop-opacity:1" />
      <stop offset="100%" style="stop-color:#e6c200;stop-opacity:1" />
    </linearGradient>
  </defs>
  <rect width="200" height="200" fill="#f0f0f0" />
  <!-- 上部連接件 -->
  <rect x="85" y="20" width="30" height="15" rx="3" fill="#333" />
  <!-- 外筒 -->
  <rect x="90" y="35" width="20" height="120" rx="10" fill="url(#metalGrad)" stroke="#333" stroke-width="1" />
  <!-- 彈簧 -->
  <path d="M95,45 L105,45 L95,55 L105,55 L95,65 L105,65 L95,75 L105,75 L95,85 L105,85 L95,95 L105,95 L95,105 L105,105 L95,115 L105,115 L95,125 L105,125 L95,135 L105,135" fill="none" stroke="url(#goldGrad)" stroke-width="3" />
  <!-- 下部連接件 -->
  <rect x="85" y="155" width="30" height="15" rx="3" fill="#333" />
</svg> 